<svg width="61" height="81" viewBox="0 0 61 81" fill="none" xmlns="http://www.w3.org/2000/svg">
<g id="Confusion icon 1" clip-path="url(#clip0_658_3665)">
<g id="Group">
<g id="Group_2">
<g id="Group_3">
<g id="Group_4">
<path id="Vector" d="M30.8333 27.5C29.1666 27.5 27.8333 26.1667 27.8333 24.5C27.8333 22.8333 29.1666 21.5 30.8333 21.5C32.4999 21.5 33.8333 22.8333 33.8333 24.5C33.8333 26.1667 32.4999 27.5 30.8333 27.5Z" fill="black"/>
</g>
<g id="Group_5">
<path id="Vector_2" d="M29.9166 19.5003C29.4999 19.5003 29.0833 19.3337 28.8333 19.0003C28.5833 18.667 28.4166 18.2503 28.4166 17.8337C28.6666 14.3337 30.0833 13.0837 31.7499 11.917C32.4166 11.5003 32.9999 11.0837 33.5833 10.2503C34.1666 9.50033 34.25 8.41699 33.75 7.50033C33.4166 6.91699 32.5833 5.83366 30.5833 5.83366C27.9999 5.83366 27.1666 7.41699 26.9166 8.75033C26.7499 9.50033 26.1666 10.0003 25.4166 10.0003H23.4999C23.0833 10.0003 22.6666 9.83366 22.3333 9.50033C22.0833 9.16699 21.9166 8.75033 21.9999 8.33366C22.4999 4.91699 25.0833 0.916992 30.5833 0.916992C33.9166 0.916992 36.7499 2.58366 38.1666 5.33366C39.4999 7.91699 39.2499 10.917 37.5833 13.2503C36.4999 14.7503 35.4166 15.5003 34.6666 16.0003C33.8333 16.5837 33.4999 16.8337 33.4166 18.0837C33.3333 18.8337 32.6666 19.5003 31.9166 19.5003H29.9166Z" fill="black"/>
</g>
<g id="Group_6">
<path id="Vector_3" d="M9.16662 23.9173C8.74995 23.9173 8.33328 23.7507 8.08328 23.4173C7.83328 23.084 7.66662 22.6673 7.66662 22.2507C7.91662 18.7507 9.33328 17.5007 10.9999 16.334C11.6666 15.9173 12.2499 15.5007 12.8333 14.6673C13.4166 13.9173 13.4999 12.834 12.9999 11.9173C12.6666 11.334 11.8333 10.2507 9.83328 10.2507C7.24995 10.2507 6.41662 11.834 6.16662 13.1673C5.99995 13.9173 5.41662 14.4173 4.66662 14.4173H2.74995C2.33328 14.4173 1.91662 14.2507 1.58328 13.9173C1.33328 13.584 1.16662 13.1673 1.24995 12.7507C1.74995 9.33398 4.33328 5.33398 9.83328 5.33398C13.1666 5.33398 15.9999 7.00065 17.4166 9.75065C18.7499 12.334 18.4999 15.334 16.8333 17.6673C15.7499 19.084 14.6666 19.9173 13.9166 20.4173C13.0833 21.0006 12.7499 21.2506 12.6666 22.5006C12.5833 23.2506 11.9166 23.9173 11.1666 23.9173H9.16662Z" fill="black"/>
</g>
<g id="Group_7">
<path id="Vector_4" d="M10.0833 31.834C8.41659 31.834 7.08325 30.5006 7.08325 28.834C7.08325 27.1673 8.41659 25.834 10.0833 25.834C11.7499 25.834 13.0833 27.1673 13.0833 28.834C12.9999 30.5006 11.7499 31.834 10.0833 31.834Z" fill="black"/>
</g>
<g id="Group_8">
<path id="Vector_5" d="M51.6666 31.834C50 31.834 48.6666 30.5006 48.6666 28.834C48.6666 27.1673 50 25.834 51.6666 25.834C53.3333 25.834 54.6666 27.1673 54.6666 28.834C54.5833 30.5006 53.25 31.834 51.6666 31.834Z" fill="black"/>
</g>
<g id="Group_9">
<path id="Vector_6" d="M50.75 23.9173C50.3333 23.9173 49.9167 23.7507 49.6667 23.4173C49.4167 23.084 49.25 22.6673 49.25 22.2507C49.5 18.7507 50.9167 17.5007 52.5833 16.334C53.25 15.834 53.8333 15.5007 54.4167 14.6673C55 13.9173 55.0833 12.834 54.5833 11.9173C54.25 11.334 53.4167 10.2507 51.4167 10.2507C48.8333 10.2507 48 11.834 47.75 13.1673C47.5833 13.9173 47 14.4173 46.25 14.4173H44.3333C43.9167 14.4173 43.5 14.2507 43.1667 13.9173C42.9167 13.584 42.75 13.1673 42.8333 12.7507C43.3333 9.33398 45.9167 5.33398 51.4167 5.33398C54.75 5.33398 57.5833 7.00065 59 9.75065C60.3333 12.334 60.0833 15.334 58.4167 17.6673C57.3333 19.084 56.25 19.9173 55.5 20.4173C54.6667 21.0006 54.3333 21.2506 54.25 22.5006C54.1667 23.2506 53.5 23.9173 52.75 23.9173H50.75Z" fill="black"/>
</g>
<g id="Group_10">
<path id="Vector_7" d="M30.5 53C36.1667 53 40.75 48.4167 40.75 42.75C40.75 37.0833 36.1667 32.5 30.5 32.5C24.8333 32.5 20.25 37.0833 20.25 42.75C20.25 48.4167 24.8333 53 30.5 53Z" fill="black"/>
</g>
<g id="Group_11">
<path id="Vector_8" d="M52.8333 40.5832C52.25 38.4165 50.0833 37.0832 47.8333 37.6665C45.6666 38.2499 44.3333 40.4165 44.9166 42.6665L47.1666 51.1665L37.9166 55.7499C36.4166 56.4999 34.75 56.9165 33.0833 56.9165H27.9166C26.25 56.9165 24.5833 56.4999 23.0833 55.7499L13.8333 51.1665L16.0833 42.6665C16.6666 40.4999 15.3333 38.2499 13.1666 37.6665C11 37.0832 8.74995 38.4165 8.16662 40.5832L5.08329 52.2499C4.58329 54.0832 5.49995 56.0832 7.16662 56.9165L19.4166 62.9999C19.6666 63.0832 19.8333 63.1665 20.0833 63.2499V77.9165C20.0833 79.0832 21 80.0832 22.25 80.0832H38.75C39.9166 80.0832 40.9166 79.1665 40.9166 77.9165V63.3332C41.1666 63.2499 41.3333 63.1665 41.5833 63.0832L53.75 56.9999C55.5 56.1665 56.3333 54.1665 55.8333 52.3332L52.8333 40.5832Z" fill="black"/>
</g>
</g>
</g>
</g>
</g>
<defs>
<clipPath id="clip0_658_3665">
<rect width="60" height="80" fill="white" transform="translate(0.5 0.5)"/>
</clipPath>
</defs>
</svg>
