<svg width="61" height="68" viewBox="0 0 61 68" fill="none" xmlns="http://www.w3.org/2000/svg">
<g id="Document Icon 4090 1" clip-path="url(#clip0_658_3638)">
<path id="Vector" d="M36.5903 38.1807H11.6046V42.3433H36.5903V38.1807Z" fill="#010101"/>
<path id="Vector_2" d="M36.5903 25.6904H11.6046V29.853H36.5903V25.6904Z" fill="#010101"/>
<path id="Vector_3" d="M36.5903 13.2021H11.6046V17.3648H36.5903V13.2021Z" fill="#010101"/>
<path id="Vector_4" d="M57.4116 10.4266H47.6956V3.48699C47.6956 1.75207 46.6552 0.711914 44.9191 0.711914H3.27582C1.54044 0.711914 0.5 1.75207 0.5 3.48699V54.8324C0.5 56.5686 1.54044 57.6094 3.27582 57.6094H12.9925V63.8543C12.9925 65.5893 14.0336 66.6294 15.769 66.6294H57.4116C59.1477 66.6294 60.1881 65.5893 60.1881 63.8543V13.2017C60.1881 11.4661 59.1477 10.4266 57.4116 10.4266ZM4.6644 52.058V6.26272C4.6644 5.39526 5.18461 4.87452 6.05231 4.87452H42.1426C43.0103 4.87452 43.5305 5.39526 43.5305 6.26272V52.058C43.5305 52.9248 43.0103 53.4449 42.1426 53.4449H6.05231C5.18461 53.4449 4.6644 52.9248 4.6644 52.058ZM56.0231 61.0773C56.0231 61.9448 55.5029 62.4642 54.6358 62.4642H19.2391C18.3714 62.4642 17.8512 61.9454 17.8512 61.0773V57.6075H44.9191C46.6552 57.6075 47.6956 56.5673 47.6956 54.8317V15.2833H54.6358C55.5029 15.2833 56.0231 15.8028 56.0231 16.6702V61.0773Z" fill="#010101"/>
</g>
<defs>
<clipPath id="clip0_658_3638">
<rect width="60" height="66.5753" fill="white" transform="translate(0.5 0.711914)"/>
</clipPath>
</defs>
</svg>
