<svg width="61" height="91" viewBox="0 0 61 91" fill="none" xmlns="http://www.w3.org/2000/svg">
<g id="Honest icon 1" clip-path="url(#clip0_658_3652)">
<path id="Vector" d="M30.5172 27.2043C33.1532 27.2029 35.7295 26.4186 37.9205 24.9506C40.1116 23.4826 41.8189 21.3968 42.8266 18.9569C43.8344 16.517 44.0974 13.8326 43.5823 11.243C43.0672 8.65342 41.7971 6.27496 39.9328 4.40834C38.0684 2.54171 35.6934 1.27073 33.108 0.756079C30.5226 0.241428 27.8429 0.506218 25.4077 1.51697C22.9725 2.52772 20.8912 4.23906 19.4268 6.43461C17.9625 8.63016 17.1809 11.2113 17.1808 13.8518C17.1856 17.3928 18.5925 20.7873 21.0927 23.2905C23.5929 25.7937 26.9823 27.2013 30.5172 27.2043ZM30.5172 3.31251C32.5979 3.31394 34.6314 3.9333 36.3607 5.09229C38.0901 6.25129 39.4375 7.89787 40.2328 9.82389C41.028 11.7499 41.2353 13.8689 40.8285 15.9129C40.4217 17.9569 39.419 19.8342 37.9472 21.3075C36.4754 22.7808 34.6006 23.7838 32.5598 24.1899C30.519 24.5959 28.4038 24.3868 26.4817 23.5888C24.5595 22.7908 22.9168 21.4398 21.761 19.7067C20.6052 17.9736 19.9884 15.9361 19.9885 13.8518C19.9926 11.0566 21.1035 8.37716 23.0773 6.40133C25.0511 4.42551 27.7268 3.31467 30.5172 3.31251Z" fill="black"/>
<path id="Vector_2" d="M30.666 89.2382L31.7641 78.6357H32.6271L33.7204 89.1922C33.7394 89.3759 33.7943 89.554 33.882 89.7164C33.9697 89.8788 34.0885 90.0224 34.2316 90.1388C34.5206 90.3739 34.891 90.4844 35.2613 90.446C35.4447 90.427 35.6225 90.372 35.7847 90.2841C35.9468 90.1962 36.0901 90.0772 36.2063 89.9339C36.3225 89.7906 36.4094 89.6257 36.462 89.4487C36.5147 89.2717 36.532 89.0861 36.513 88.9024L35.2887 77.0846C35.253 76.7386 35.0904 76.4181 34.8325 76.1852C34.5746 75.9522 34.2397 75.8232 33.8924 75.8232H30.4987C30.1514 75.8232 29.8165 75.9522 29.5586 76.1852C29.3007 76.4181 29.1381 76.7386 29.1024 77.0846L27.8733 88.9484C27.8543 89.1321 27.8716 89.3177 27.9242 89.4947C27.9769 89.6717 28.0638 89.8366 28.18 89.9799C28.2962 90.1232 28.4395 90.2422 28.6016 90.3301C28.7638 90.418 28.9416 90.473 29.125 90.492C29.1735 90.4973 29.2222 90.4998 29.271 90.4996C29.6181 90.4993 29.9527 90.3702 30.2104 90.1373C30.468 89.9043 30.6303 89.584 30.666 89.2382Z" fill="black"/>
<path id="Vector_3" d="M50.6589 61.2913C51.1844 61.2884 51.7094 61.2563 52.2314 61.1952C53.024 61.147 53.8059 60.9869 54.5538 60.7196C54.6252 60.6974 54.6997 60.6816 54.7703 60.6582C54.8951 60.6147 55.0131 60.5537 55.1207 60.4769C56.3748 59.921 57.4598 59.0426 58.2655 57.9308C58.9489 56.9769 59.3923 55.8718 59.5579 54.7095C59.7236 53.5472 59.6066 52.3619 59.2169 51.2546L54.8032 38.3017C53.8151 35.4648 51.9662 33.0084 49.5154 31.2762C47.0646 29.544 44.1344 28.6227 41.135 28.6413L18.7258 28.6289H18.7189C16.6941 28.6282 14.7023 29.1437 12.9312 30.1269C11.1601 31.1101 9.66801 32.5287 8.59532 34.2491C8.57064 34.2889 8.54871 34.3294 8.52815 34.3713C8.29301 34.8575 2.75173 46.3141 1.25742 50.445C0.365499 52.9939 0.491752 55.7895 1.60978 58.2473C2.08429 59.204 2.75164 60.0517 3.56972 60.7369C4.3878 61.4222 5.33882 61.9301 6.36274 62.2285C7.71485 62.6488 9.12287 62.8609 10.5386 62.8575C12.6017 62.8468 14.6428 62.4322 16.547 61.6371L16.5097 69.1994L14.9276 88.9301C14.9128 89.1142 14.9344 89.2993 14.991 89.475C15.0477 89.6507 15.1384 89.8135 15.2578 89.9541C15.3773 90.0947 15.5233 90.2104 15.6874 90.2944C15.8515 90.3785 16.0305 90.4294 16.2142 90.4442C16.2526 90.4476 16.2903 90.449 16.328 90.449C16.6806 90.4486 17.0202 90.3154 17.2792 90.0757C17.5381 89.836 17.6976 89.5074 17.7257 89.1553L19.3125 69.3717C19.316 69.3367 19.3173 69.301 19.3173 69.266L19.3613 60.3292L29.0563 55.733C29.1622 55.8447 29.2598 55.964 29.3484 56.0899C29.4766 56.2829 29.6504 56.4412 29.8543 56.5507C30.0583 56.6602 30.2861 56.7175 30.5175 56.7175C30.7489 56.7175 30.9767 56.6602 31.1807 56.5507C31.3846 56.4412 31.5584 56.2829 31.6866 56.0899C32.144 55.5217 32.6639 55.0067 33.2362 54.5547L43.7364 59.7085C44.0065 59.8366 44.2795 59.9569 44.5555 60.0694V70.5376C44.5555 70.5768 44.5569 70.6166 44.5603 70.6558L46.1101 89.1011C46.1398 89.4521 46.2998 89.7793 46.5586 90.0178C46.8174 90.2563 47.1561 90.3889 47.5078 90.3892C47.5469 90.3892 47.5866 90.3878 47.6271 90.3844C47.9981 90.3531 48.3415 90.1753 48.5818 89.8904C48.822 89.6054 48.9394 89.2366 48.9082 88.8649L47.3632 70.4786V60.9325C48.4462 61.1673 49.5508 61.2875 50.6589 61.2913ZM27.7986 45.199L27.7829 49.6087C27.7714 50.1766 27.9089 50.7376 28.1818 51.2355C27.139 50.4128 25.8853 49.4809 24.4206 48.44C22.9273 47.3856 21.7933 45.8971 21.1722 44.1759C20.7045 42.9504 20.5775 41.6208 20.8048 40.3287C21.0063 39.0841 21.6214 37.9442 22.5504 37.0936C23.4793 36.2429 24.6678 35.7313 25.9232 35.6416C25.9917 35.6382 26.0589 35.6361 26.1254 35.6361C26.7537 35.6389 27.3717 35.7954 27.9257 36.0922C28.4797 36.3891 28.9529 36.8171 29.3039 37.339C29.4273 37.549 29.6031 37.7231 29.814 37.8445C30.0249 37.9658 30.2637 38.0302 30.5069 38.0312C30.7507 38.0305 30.9903 37.9676 31.2031 37.8486C31.416 37.7296 31.5951 37.5582 31.7236 37.3507C32.0921 36.7964 32.5979 36.3475 33.1916 36.0479C33.7853 35.7483 34.4465 35.6083 35.1105 35.6416C36.3658 35.7315 37.5542 36.243 38.4832 37.0935C39.4122 37.944 40.0275 39.0836 40.2296 40.328C40.4563 41.6203 40.3293 42.9501 39.8622 44.1759C39.7809 44.4012 39.6781 44.6153 39.5796 44.8315L32.7929 41.6436C32.3849 41.4441 31.94 41.3319 31.4863 41.314C31.0327 41.2962 30.5803 41.3731 30.158 41.5399C29.4467 41.8465 28.8425 42.3582 28.4224 43.0098C28.0022 43.6614 27.7851 44.4235 27.7986 45.199ZM30.5171 53.2225L30.4912 53.1986L30.5246 53.2156L30.5171 53.2225ZM44.9544 57.1748L32.202 50.9154C30.587 50.1229 30.5884 49.8833 30.5905 49.6238L30.6062 45.2038C30.5921 44.9844 30.6439 44.7657 30.755 44.576C30.866 44.3864 31.0312 44.2343 31.2293 44.1395C31.3545 44.1088 31.4867 44.1264 31.5995 44.189L47.357 51.591C47.6938 51.7473 48.0786 51.7636 48.4273 51.6364C48.776 51.5093 49.0603 51.2489 49.2179 50.9124C49.3756 50.5759 49.3938 50.1905 49.2686 49.8405C49.1434 49.4906 48.8849 49.2045 48.5497 49.0449L47.6059 48.6016L45.5467 43.3094C45.4516 43.0613 45.2879 42.8455 45.0749 42.6872C44.8618 42.5289 44.6081 42.4346 44.3435 42.4155C44.0789 42.3964 43.8143 42.4532 43.5807 42.5792C43.3472 42.7052 43.1543 42.8953 43.0246 43.1271C43.2053 42.0262 43.1929 40.9021 42.9878 39.8054C42.6704 37.9394 41.7332 36.2354 40.328 34.9696C38.9229 33.7039 37.1322 32.9506 35.2462 32.8319C34.3868 32.7825 33.5262 32.9048 32.7144 33.1914C31.9026 33.4781 31.1557 33.9235 30.5172 34.5018C29.8781 33.9241 29.131 33.4791 28.3192 33.1925C27.5074 32.9059 26.6469 32.7833 25.7875 32.8319C23.9015 32.9504 22.1107 33.7036 20.7057 34.9694C19.3006 36.2352 18.3636 37.9393 18.0465 39.8054C17.7231 41.5921 17.8909 43.4332 18.5318 45.1318C18.8284 45.953 19.2157 46.7385 19.6864 47.4737L15.0766 49.6391L17.5495 43.3801C17.6866 43.0334 17.6806 42.6463 17.5327 42.304C17.3849 41.9617 17.1074 41.6923 16.7612 41.555C16.4151 41.4177 16.0287 41.4237 15.687 41.5718C15.3453 41.7199 15.0764 41.9979 14.9393 42.3446L11.2988 51.5587C11.2148 51.772 11.184 52.0026 11.2092 52.2305C11.2344 52.4584 11.3148 52.6766 11.4434 52.8663C11.5719 53.056 11.7448 53.2114 11.9469 53.3189C12.1491 53.4264 12.3743 53.4829 12.6032 53.4834C12.6219 53.4834 12.6392 53.476 12.6578 53.4753C12.9901 53.5797 13.3493 53.5559 13.665 53.4086L21.5466 49.7063C21.9396 50.077 22.3573 50.4206 22.7968 50.7348C24.463 51.9179 25.7688 52.9035 26.7702 53.7055L17.7889 57.9634C17.4867 57.9992 17.2045 58.133 16.9852 58.3444L16.1731 58.7294C13.3908 60.1214 10.1871 60.4122 7.20038 59.5438C6.53836 59.3589 5.92251 59.0367 5.39278 58.5981C4.86304 58.1595 4.43125 57.6142 4.12539 56.9977C3.34177 55.2297 3.26038 53.2289 3.89781 51.4029C5.28588 47.5639 10.5653 36.6112 11.0232 35.6636C11.8473 34.3677 12.9847 33.3012 14.3301 32.563C15.6754 31.8249 17.185 31.4392 18.719 31.4415H18.7244L41.1337 31.4538C43.5475 31.4351 45.9069 32.1728 47.8815 33.5637C49.8562 34.9545 51.3473 36.929 52.1464 39.2108L56.5601 52.1637C56.8077 52.8472 56.8845 53.5811 56.7836 54.3012C56.6828 55.0213 56.4074 55.7057 55.9816 56.2945C55.3964 57.0981 54.5862 57.7095 53.6537 58.0513C53.1111 58.2144 52.5554 58.33 51.9929 58.3969C51.8822 58.4032 51.773 58.4156 51.661 58.4156C51.5591 58.4162 51.4575 58.4278 51.3581 58.4504C49.1508 58.5661 46.9496 58.1276 44.9544 57.1748ZM42.1241 46.0267C42.2598 45.7333 42.3919 45.4378 42.5025 45.1311C42.6383 44.7515 42.7539 44.365 42.8489 43.9732C42.8603 44.0956 42.8879 44.216 42.931 44.3311L43.9187 46.8696L42.1241 46.0267Z" fill="black"/>
<path id="Vector_4" d="M30.5172 21.4089C31.2544 21.4102 31.9847 21.2657 32.666 20.9836C33.3473 20.7015 33.9663 20.2874 34.4874 19.7651C34.7495 19.5011 34.8964 19.1439 34.8959 18.7716C34.8954 18.3993 34.7476 18.0424 34.4848 17.7792C34.222 17.516 33.8657 17.3679 33.4941 17.3674C33.1225 17.3669 32.7658 17.514 32.5023 17.7765C31.9751 18.3028 31.2611 18.5982 30.5167 18.5981C29.7724 18.598 29.0585 18.3023 28.5314 17.7758C28.2678 17.513 27.9109 17.3657 27.539 17.3662C27.1671 17.3667 26.8105 17.515 26.5476 17.7785C26.2848 18.0421 26.137 18.3993 26.1367 18.7719C26.1365 19.1444 26.2838 19.5019 26.5463 19.7657C27.0677 20.288 27.6868 20.7019 28.3682 20.9839C29.0497 21.2659 29.7799 21.4103 30.5172 21.4089Z" fill="black"/>
</g>
<defs>
<clipPath id="clip0_658_3652">
<rect width="59.6629" height="90" fill="white" transform="translate(0.668579 0.5)"/>
</clipPath>
</defs>
</svg>
