<svg width="75" height="81" viewBox="0 0 75 81" fill="none" xmlns="http://www.w3.org/2000/svg">
<rect width="75" height="81" fill="#1E1E1E"/>
<path d="M-2155 -2050C-2155 -2051.1 -2154.1 -2052 -2153 -2052H17386C17387.1 -2052 17388 -2051.1 17388 -2050V4901C17388 4902.1 17387.1 4903 17386 4903H-2153C-2154.1 4903 -2155 4902.1 -2155 4901V-2050Z" fill="#444444"/>
<path d="M-2153 -2051H17386V-2053H-2153V-2051ZM17387 -2050V4901H17389V-2050H17387ZM17386 4902H-2153V4904H17386V4902ZM-2154 4901V-2050H-2156V4901H-2154ZM-2153 4902C-2153.55 4902 -2154 4901.55 -2154 4901H-2156C-2156 4902.66 -2154.66 4904 -2153 4904V4902ZM17387 4901C17387 4901.55 17386.6 4902 17386 4902V4904C17387.7 4904 17389 4902.66 17389 4901H17387ZM17386 -2051C17386.6 -2051 17387 -2050.55 17387 -2050H17389C17389 -2051.66 17387.7 -2053 17386 -2053V-2051ZM-2153 -2053C-2154.66 -2053 -2156 -2051.66 -2156 -2050H-2154C-2154 -2050.55 -2153.55 -2051 -2153 -2051V-2053Z" fill="white" fill-opacity="0.1"/>
<rect width="1440" height="1196" transform="translate(-392 -801)" fill="white"/>
<rect x="-362" y="-735" width="1380" height="1024" rx="13" fill="#F1F5F9"/>
<g clip-path="url(#clip0_0_1)">
<g filter="url(#filter0_d_0_1)">
<g clip-path="url(#clip1_0_1)">
<path d="M-35 -24C-35 -28.4183 -31.4183 -32 -27 -32H683C687.418 -32 691 -28.4183 691 -24V105C691 109.418 687.418 113 683 113H-27C-31.4183 113 -35 109.418 -35 105V-24Z" fill="white"/>
<path fill-rule="evenodd" clip-rule="evenodd" d="M62.3347 43.9161H12.6912C12.3116 43.9161 11.9602 44.0756 11.689 44.3514L1.57607 55.309C1.22361 55.7038 1.14206 56.2744 1.35896 56.7665C1.54875 57.2587 2.03598 57.5751 2.57824 57.5751H11.2005V78.2462C11.2005 78.9926 11.8241 79.5983 12.5562 79.5983H62.4432C63.2024 79.5983 63.7989 78.9926 63.7989 78.2462V57.5751H72.4212C72.9634 57.5751 73.4513 57.2587 73.6683 56.7665C73.8852 56.2744 73.8042 55.7038 73.4247 55.309L63.3117 44.3514C63.0677 44.0756 62.7143 43.9161 62.3347 43.9161ZM36.1447 48.735L28.3896 57.1397C28.1455 57.4183 27.7941 57.5751 27.3874 57.5751H13.9118C13.9118 61.6152 13.9118 76.8941 13.9118 76.8941H36.1447V48.735ZM38.856 48.735V76.8941H61.0876V57.5751H47.6133C47.2338 57.5751 46.881 57.4183 46.6099 57.1397L38.856 48.735ZM40.5903 46.6203H61.7389L69.33 54.8709H48.2091L40.5903 46.6203ZM34.4092 46.6203L26.8168 54.8709H5.66945L13.2883 46.6203H34.4092ZM37.5004 13.4016C36.7141 12.3578 35.4929 11.56 33.595 11.56C29.4467 11.56 28.0098 14.5725 27.4946 16.36C26.139 16.4601 24.0249 17.055 22.832 19.551C21.5848 22.1498 22.4255 24.4673 23.0491 25.6409C22.4526 26.8308 21.5845 29.1618 22.5606 31.4604C23.7536 34.3079 26.1119 35.0165 27.5489 35.1733C28.0369 36.6119 29.3394 38.8808 32.7014 39.2134C34.7619 39.4135 36.1443 38.8213 37.0661 37.9424C37.2288 37.7991 37.3648 37.645 37.5004 37.4827C37.6359 37.645 37.7706 37.7991 37.9333 37.9424C38.8822 38.8213 40.2659 39.4135 42.2994 39.2134C45.6884 38.8808 46.989 36.6092 47.477 35.1706C48.914 35.0165 51.2737 34.3079 52.4666 31.4604C53.4156 29.1618 52.5746 26.8308 51.9781 25.6382C52.6017 24.4673 53.4424 22.1498 52.1952 19.551C51.0023 17.055 48.8875 16.4601 47.5048 16.36C47.0168 14.5725 45.5792 11.56 41.4309 11.56C39.533 11.56 38.2866 12.3578 37.5004 13.4016ZM36.1447 17.7365V17.7148C36.1447 17.5499 36.1166 16.6872 35.7913 15.8246C35.4659 15.0539 34.8693 14.2642 33.595 14.2642C30.1788 14.2642 29.9623 17.823 29.9623 17.823C29.9352 18.2097 29.7456 18.5667 29.4473 18.8046C29.1491 19.0399 28.7427 19.1372 28.3631 19.0642C28.3631 19.0642 26.2479 18.6856 25.2719 20.7138C24.2145 22.9123 25.6783 24.7729 25.6783 24.7729C26.0579 25.2461 26.085 25.9059 25.7326 26.3981C25.7326 26.3981 24.2143 28.4209 25.0548 30.4193C26.0308 32.7747 28.4438 32.5042 28.4438 32.5042C28.8234 32.461 29.1756 32.5637 29.4738 32.7909C29.7449 33.018 29.9352 33.3507 29.9623 33.7103C29.9623 33.7103 30.2602 36.255 32.9714 36.5227C34.0288 36.6255 34.734 36.4145 35.222 35.9683C36.0083 35.2409 36.1447 34.0592 36.1447 33.1857C36.1447 33.1803 36.1447 33.1776 36.1447 33.1722V17.7365ZM38.856 17.7851V33.1857C38.856 34.0592 39.0183 35.2409 39.7774 35.9683C40.2654 36.4145 40.9977 36.6255 42.028 36.5227C44.7664 36.255 45.0371 33.7103 45.0371 33.7103C45.0913 33.3507 45.2539 33.018 45.5521 32.7909C45.8232 32.5637 46.2031 32.461 46.5556 32.5042C46.5556 32.5042 48.968 32.7747 49.9711 30.4193C50.7845 28.4209 49.2933 26.3981 49.2933 26.3981C48.9409 25.9059 48.9415 25.2461 49.3211 24.7729C49.3211 24.7729 50.7849 22.9123 49.7276 20.7138C48.7786 18.6856 46.6363 19.0642 46.6363 19.0642C46.2568 19.1372 45.8774 19.0399 45.5521 18.8046C45.2539 18.5667 45.0642 18.2097 45.0371 17.823C45.0371 17.823 44.8471 14.2642 41.4309 14.2642C40.1566 14.2642 39.5329 15.0539 39.2346 15.8246C38.8822 16.6872 38.856 17.5499 38.856 17.7148V17.75C38.856 17.7635 38.856 17.7743 38.856 17.7851ZM31.8607 20.4272C31.8607 20.4272 28.3631 21.1492 28.3631 25.2488C28.3631 29.1997 31.6979 30.3409 31.6979 30.3409C32.4028 30.5923 33.1895 30.2273 33.4335 29.5242C33.7046 28.8238 33.3242 28.0477 32.6193 27.7962C32.6193 27.7962 31.0743 27.1823 31.0743 25.2488C31.0743 23.464 32.4565 23.0611 32.4565 23.0611C33.1885 22.8934 33.6504 22.166 33.4877 21.4412C33.3251 20.7138 32.5928 20.2595 31.8607 20.4272ZM42.543 23.0611C42.543 23.0611 43.9529 23.464 43.9529 25.2488C43.9529 27.1823 42.4066 27.7962 42.4066 27.7962C41.7017 28.0477 41.3233 28.8238 41.5673 29.5242C41.8384 30.2273 42.5966 30.5923 43.3015 30.3409C43.3015 30.3409 46.6641 29.1997 46.6641 25.2488C46.6641 21.1492 43.1665 20.4272 43.1665 20.4272C42.4345 20.2595 41.7021 20.7138 41.5395 21.4412C41.3768 22.166 41.8109 22.8934 42.543 23.0611ZM14.5618 26.7578H18.3309C19.09 26.7578 19.6865 26.152 19.6865 25.4056C19.6865 24.6593 19.09 24.0535 18.3309 24.0535H14.5618C13.8298 24.0535 13.2062 24.6593 13.2062 25.4056C13.2062 26.152 13.8298 26.7578 14.5618 26.7578ZM60.4376 24.0535H56.6686C55.9365 24.0535 55.3129 24.6593 55.3129 25.4056C55.3129 26.152 55.9365 26.7578 56.6686 26.7578H60.4376C61.1967 26.7578 61.7932 26.152 61.7932 25.4056C61.7932 24.6593 61.1967 24.0535 60.4376 24.0535ZM20.3378 10.1836L22.9948 12.8445C23.5371 13.3718 24.3775 13.3718 24.9197 12.8445C25.4349 12.3172 25.4349 11.4599 24.9197 10.9326L22.2349 8.27167C21.7198 7.74434 20.853 7.74434 20.3378 8.27167C19.7956 8.79899 19.7956 9.65623 20.3378 10.1836ZM52.7645 8.27167L50.1075 10.9326C49.5652 11.4599 49.5652 12.3172 50.1075 12.8445C50.6226 13.3718 51.4894 13.3718 52.0046 12.8445L54.6894 10.1836C55.2045 9.65623 55.2045 8.79899 54.6894 8.27167C54.1471 7.74434 53.3067 7.74434 52.7645 8.27167ZM36.1447 2.52789V6.28947C36.1447 7.03584 36.7683 7.64158 37.5004 7.64158C38.2595 7.64158 38.856 7.03584 38.856 6.28947V2.52789C38.856 1.78153 38.2595 1.17578 37.5004 1.17578C36.7683 1.17578 36.1447 1.78153 36.1447 2.52789Z" fill="black"/>
</g>
<path d="M-34.5 -24C-34.5 -28.1421 -31.1421 -31.5 -27 -31.5H683C687.142 -31.5 690.5 -28.1421 690.5 -24V105C690.5 109.142 687.142 112.5 683 112.5H-27C-31.1421 112.5 -34.5 109.142 -34.5 105V-24Z" stroke="#E4E4E7"/>
</g>
</g>
<defs>
<filter id="filter0_d_0_1" x="-37" y="-33" width="730" height="149" filterUnits="userSpaceOnUse" color-interpolation-filters="sRGB">
<feFlood flood-opacity="0" result="BackgroundImageFix"/>
<feColorMatrix in="SourceAlpha" type="matrix" values="0 0 0 0 0 0 0 0 0 0 0 0 0 0 0 0 0 0 127 0" result="hardAlpha"/>
<feOffset dy="1"/>
<feGaussianBlur stdDeviation="1"/>
<feComposite in2="hardAlpha" operator="out"/>
<feColorMatrix type="matrix" values="0 0 0 0 0 0 0 0 0 0 0 0 0 0 0 0 0 0 0.05 0"/>
<feBlend mode="normal" in2="BackgroundImageFix" result="effect1_dropShadow_0_1"/>
<feBlend mode="normal" in="SourceGraphic" in2="effect1_dropShadow_0_1" result="shape"/>
</filter>
<clipPath id="clip0_0_1">
<rect width="867" height="924" fill="white" transform="translate(-105.5 -685)"/>
</clipPath>
<clipPath id="clip1_0_1">
<path d="M-35 -24C-35 -28.4183 -31.4183 -32 -27 -32H683C687.418 -32 691 -28.4183 691 -24V105C691 109.418 687.418 113 683 113H-27C-31.4183 113 -35 109.418 -35 105V-24Z" fill="white"/>
</clipPath>
</defs>
</svg>
